<mxfile host="Electron" modified="2023-05-15T12:05:45.914Z" agent="Mozilla/5.0 (Windows NT 10.0; Win64; x64) AppleWebKit/537.36 (KHTML, like Gecko) draw.io/21.2.8 Chrome/112.0.5615.165 Electron/24.2.0 Safari/537.36" etag="7cI6ZDct_wpXE3Igodu-" version="21.2.8" type="device">
  <diagram name="Page-1" id="YpWVVZihGrBSJXwOBpHP">
    <mxGraphModel dx="1110" dy="765" grid="1" gridSize="10" guides="1" tooltips="1" connect="1" arrows="1" fold="1" page="1" pageScale="1" pageWidth="827" pageHeight="1169" math="0" shadow="0">
      <root>
        <mxCell id="0" />
        <mxCell id="1" parent="0" />
        <mxCell id="uFAtMosG5yBuo42fv5vl-12" value="" style="shape=flexArrow;endArrow=classic;html=1;rounded=0;" parent="1" edge="1">
          <mxGeometry width="50" height="50" relative="1" as="geometry">
            <mxPoint x="40" y="270" as="sourcePoint" />
            <mxPoint x="1020" y="270" as="targetPoint" />
          </mxGeometry>
        </mxCell>
        <mxCell id="uFAtMosG5yBuo42fv5vl-15" value="" style="endArrow=classic;html=1;rounded=0;exitX=0.5;exitY=1;exitDx=0;exitDy=0;" parent="1" edge="1">
          <mxGeometry width="50" height="50" relative="1" as="geometry">
            <mxPoint x="85" y="150" as="sourcePoint" />
            <mxPoint x="140" y="260" as="targetPoint" />
          </mxGeometry>
        </mxCell>
        <mxCell id="uFAtMosG5yBuo42fv5vl-16" value="Blob detection" style="text;html=1;strokeColor=none;fillColor=none;align=center;verticalAlign=middle;whiteSpace=wrap;rounded=0;rotation=65;" parent="1" vertex="1">
          <mxGeometry x="70" y="180" width="100" height="30" as="geometry" />
        </mxCell>
        <mxCell id="uFAtMosG5yBuo42fv5vl-17" value="" style="rounded=1;whiteSpace=wrap;html=1;" parent="1" vertex="1">
          <mxGeometry x="433" y="41" width="127" height="65" as="geometry" />
        </mxCell>
        <mxCell id="uFAtMosG5yBuo42fv5vl-22" value="&lt;b&gt;Blob algorithm.v2&lt;/b&gt;" style="text;html=1;strokeColor=none;fillColor=none;align=center;verticalAlign=middle;whiteSpace=wrap;rounded=0;" parent="1" vertex="1">
          <mxGeometry x="432" y="46" width="120" height="60" as="geometry" />
        </mxCell>
        <mxCell id="uFAtMosG5yBuo42fv5vl-23" value="Display depth/ distance of the ball" style="text;html=1;strokeColor=none;fillColor=none;align=center;verticalAlign=middle;whiteSpace=wrap;rounded=0;" parent="1" vertex="1">
          <mxGeometry x="437" y="190" width="120" height="30" as="geometry" />
        </mxCell>
        <mxCell id="uFAtMosG5yBuo42fv5vl-24" value="Display x,y coordinates&amp;nbsp;" style="text;html=1;strokeColor=none;fillColor=none;align=center;verticalAlign=middle;whiteSpace=wrap;rounded=0;" parent="1" vertex="1">
          <mxGeometry x="453" y="145" width="80" height="30" as="geometry" />
        </mxCell>
        <mxCell id="uFAtMosG5yBuo42fv5vl-25" value="Display FPS" style="text;html=1;strokeColor=none;fillColor=none;align=center;verticalAlign=middle;whiteSpace=wrap;rounded=0;" parent="1" vertex="1">
          <mxGeometry x="460" y="109" width="70" height="30" as="geometry" />
        </mxCell>
        <mxCell id="uFAtMosG5yBuo42fv5vl-26" value="" style="endArrow=none;html=1;rounded=0;exitX=0;exitY=0.75;exitDx=0;exitDy=0;entryX=1;entryY=0.75;entryDx=0;entryDy=0;" parent="1" edge="1" target="uFAtMosG5yBuo42fv5vl-25" source="uFAtMosG5yBuo42fv5vl-25">
          <mxGeometry width="50" height="50" relative="1" as="geometry">
            <mxPoint x="460" y="134" as="sourcePoint" />
            <mxPoint x="530" y="134" as="targetPoint" />
          </mxGeometry>
        </mxCell>
        <mxCell id="uFAtMosG5yBuo42fv5vl-27" value="" style="endArrow=none;html=1;rounded=0;exitX=0.101;exitY=1.002;exitDx=0;exitDy=0;exitPerimeter=0;" parent="1" source="uFAtMosG5yBuo42fv5vl-24" edge="1">
          <mxGeometry width="50" height="50" relative="1" as="geometry">
            <mxPoint x="460" y="175" as="sourcePoint" />
            <mxPoint x="523" y="175" as="targetPoint" />
          </mxGeometry>
        </mxCell>
        <mxCell id="uFAtMosG5yBuo42fv5vl-28" value="" style="endArrow=none;html=1;rounded=0;entryX=0.911;entryY=0.945;entryDx=0;entryDy=0;entryPerimeter=0;" parent="1" target="uFAtMosG5yBuo42fv5vl-23" edge="1">
          <mxGeometry width="50" height="50" relative="1" as="geometry">
            <mxPoint x="446" y="218" as="sourcePoint" />
            <mxPoint x="537" y="220" as="targetPoint" />
          </mxGeometry>
        </mxCell>
        <mxCell id="uFAtMosG5yBuo42fv5vl-29" value="&lt;b&gt;Python with OpenCV&lt;/b&gt;" style="text;html=1;strokeColor=none;fillColor=none;align=center;verticalAlign=middle;whiteSpace=wrap;rounded=0;" parent="1" vertex="1">
          <mxGeometry x="20" y="220" width="60" height="30" as="geometry" />
        </mxCell>
        <mxCell id="uFAtMosG5yBuo42fv5vl-35" value="&amp;nbsp;≈40h" style="text;html=1;strokeColor=none;fillColor=none;align=center;verticalAlign=middle;whiteSpace=wrap;rounded=0;rotation=0;" parent="1" vertex="1">
          <mxGeometry x="533" y="86" width="20" height="20" as="geometry" />
        </mxCell>
        <mxCell id="uFAtMosG5yBuo42fv5vl-38" value="" style="rounded=1;whiteSpace=wrap;html=1;fillColor=#1ba1e2;fontColor=#ffffff;strokeColor=#006EAF;" parent="1" vertex="1">
          <mxGeometry x="638" y="49" width="110" height="55" as="geometry" />
        </mxCell>
        <mxCell id="uFAtMosG5yBuo42fv5vl-39" value="&lt;b&gt;Test code på pi4&lt;/b&gt;" style="text;html=1;strokeColor=none;fillColor=none;align=center;verticalAlign=middle;whiteSpace=wrap;rounded=0;" parent="1" vertex="1">
          <mxGeometry x="638" y="61.5" width="110" height="30" as="geometry" />
        </mxCell>
        <mxCell id="uFAtMosG5yBuo42fv5vl-42" value="&amp;nbsp;≈10h" style="text;html=1;strokeColor=none;fillColor=none;align=center;verticalAlign=middle;whiteSpace=wrap;rounded=0;rotation=0;" parent="1" vertex="1">
          <mxGeometry x="716" y="88.34" width="32" height="15" as="geometry" />
        </mxCell>
        <mxCell id="uFAtMosG5yBuo42fv5vl-43" value="Too computationally expensive" style="text;html=1;strokeColor=none;fillColor=none;align=center;verticalAlign=middle;whiteSpace=wrap;rounded=0;" parent="1" vertex="1">
          <mxGeometry x="638" y="115" width="110" height="30" as="geometry" />
        </mxCell>
        <mxCell id="uFAtMosG5yBuo42fv5vl-45" value="" style="shape=flexArrow;endArrow=classic;html=1;rounded=0;" parent="1" edge="1">
          <mxGeometry width="50" height="50" relative="1" as="geometry">
            <mxPoint x="40" y="410" as="sourcePoint" />
            <mxPoint x="1020" y="410" as="targetPoint" />
            <Array as="points">
              <mxPoint x="130" y="410" />
            </Array>
          </mxGeometry>
        </mxCell>
        <mxCell id="uFAtMosG5yBuo42fv5vl-46" value="" style="endArrow=classic;html=1;rounded=0;" parent="1" edge="1">
          <mxGeometry width="50" height="50" relative="1" as="geometry">
            <mxPoint x="640" y="280" as="sourcePoint" />
            <mxPoint x="200" y="400" as="targetPoint" />
          </mxGeometry>
        </mxCell>
        <mxCell id="uFAtMosG5yBuo42fv5vl-47" value="Take a step back and write a&amp;nbsp;less computationally expensive&amp;nbsp;&lt;br&gt;&amp;nbsp;" style="text;html=1;strokeColor=none;fillColor=none;align=center;verticalAlign=middle;whiteSpace=wrap;rounded=0;rotation=-15;" parent="1" vertex="1">
          <mxGeometry x="360" y="320" width="210" height="90" as="geometry" />
        </mxCell>
        <mxCell id="uFAtMosG5yBuo42fv5vl-48" value="" style="rounded=1;whiteSpace=wrap;html=1;" parent="1" vertex="1">
          <mxGeometry x="140" y="515" width="119" height="60" as="geometry" />
        </mxCell>
        <mxCell id="uFAtMosG5yBuo42fv5vl-49" value="&lt;b&gt;Blob algorithm.v3&lt;/b&gt;" style="text;html=1;strokeColor=none;fillColor=none;align=center;verticalAlign=middle;whiteSpace=wrap;rounded=0;" parent="1" vertex="1">
          <mxGeometry x="145" y="527.78" width="115" height="30" as="geometry" />
        </mxCell>
        <mxCell id="uFAtMosG5yBuo42fv5vl-50" value="" style="endArrow=classic;html=1;rounded=0;entryX=0.5;entryY=0;entryDx=0;entryDy=0;" parent="1" target="uFAtMosG5yBuo42fv5vl-48" edge="1">
          <mxGeometry width="50" height="50" relative="1" as="geometry">
            <mxPoint x="200" y="420" as="sourcePoint" />
            <mxPoint x="200" y="480" as="targetPoint" />
            <Array as="points" />
          </mxGeometry>
        </mxCell>
        <mxCell id="uFAtMosG5yBuo42fv5vl-53" value="Display depth/ distance of the ball" style="text;html=1;strokeColor=none;fillColor=none;align=center;verticalAlign=middle;whiteSpace=wrap;rounded=0;" parent="1" vertex="1">
          <mxGeometry x="195" y="480" width="120" height="30" as="geometry" />
        </mxCell>
        <mxCell id="uFAtMosG5yBuo42fv5vl-54" value="Display x,y coordinates&amp;nbsp;" style="text;html=1;strokeColor=none;fillColor=none;align=center;verticalAlign=middle;whiteSpace=wrap;rounded=0;" parent="1" vertex="1">
          <mxGeometry x="204" y="446" width="80" height="30" as="geometry" />
        </mxCell>
        <mxCell id="uFAtMosG5yBuo42fv5vl-55" value="" style="endArrow=none;html=1;rounded=0;exitX=0.087;exitY=0.985;exitDx=0;exitDy=0;exitPerimeter=0;" parent="1" source="uFAtMosG5yBuo42fv5vl-54" edge="1">
          <mxGeometry width="50" height="50" relative="1" as="geometry">
            <mxPoint x="223" y="512" as="sourcePoint" />
            <mxPoint x="274" y="476" as="targetPoint" />
          </mxGeometry>
        </mxCell>
        <mxCell id="uFAtMosG5yBuo42fv5vl-56" value="" style="endArrow=none;html=1;rounded=0;exitX=0.089;exitY=0.971;exitDx=0;exitDy=0;exitPerimeter=0;entryX=0.904;entryY=0.965;entryDx=0;entryDy=0;entryPerimeter=0;" parent="1" source="uFAtMosG5yBuo42fv5vl-53" edge="1" target="uFAtMosG5yBuo42fv5vl-53">
          <mxGeometry width="50" height="50" relative="1" as="geometry">
            <mxPoint x="263" y="550" as="sourcePoint" />
            <mxPoint x="333" y="540" as="targetPoint" />
          </mxGeometry>
        </mxCell>
        <mxCell id="uFAtMosG5yBuo42fv5vl-57" value="Display FPS" style="text;html=1;strokeColor=none;fillColor=none;align=center;verticalAlign=middle;whiteSpace=wrap;rounded=0;" parent="1" vertex="1">
          <mxGeometry x="208" y="415" width="70" height="30" as="geometry" />
        </mxCell>
        <mxCell id="uFAtMosG5yBuo42fv5vl-58" value="" style="endArrow=none;html=1;rounded=0;entryX=1;entryY=1;entryDx=0;entryDy=0;" parent="1" edge="1">
          <mxGeometry width="50" height="50" relative="1" as="geometry">
            <mxPoint x="208" y="436" as="sourcePoint" />
            <mxPoint x="278" y="435.84000000000003" as="targetPoint" />
          </mxGeometry>
        </mxCell>
        <mxCell id="uFAtMosG5yBuo42fv5vl-59" value="≈25h" style="text;html=1;strokeColor=none;fillColor=none;align=center;verticalAlign=middle;whiteSpace=wrap;rounded=0;rotation=0;" parent="1" vertex="1">
          <mxGeometry x="217.5" y="557.78" width="42.5" height="17.22" as="geometry" />
        </mxCell>
        <mxCell id="uFAtMosG5yBuo42fv5vl-61" value="" style="rounded=1;whiteSpace=wrap;html=1;" parent="1" vertex="1">
          <mxGeometry x="30" y="30" width="140" height="100" as="geometry" />
        </mxCell>
        <mxCell id="uFAtMosG5yBuo42fv5vl-62" value="&lt;br&gt;&lt;b&gt;&lt;span style=&quot;color: rgb(0, 0, 0); font-family: Helvetica; font-size: 12px; font-style: normal; font-variant-ligatures: normal; font-variant-caps: normal; letter-spacing: normal; orphans: 2; text-align: center; text-indent: 0px; text-transform: none; widows: 2; word-spacing: 0px; -webkit-text-stroke-width: 0px; background-color: rgb(251, 251, 251); text-decoration-thickness: initial; text-decoration-style: initial; text-decoration-color: initial; float: none; display: inline !important;&quot;&gt;Choose algorithm for image processing&lt;/span&gt;&lt;br&gt;&lt;/b&gt;" style="text;html=1;strokeColor=none;fillColor=none;align=center;verticalAlign=middle;whiteSpace=wrap;rounded=0;" parent="1" vertex="1">
          <mxGeometry x="42.5" y="61" width="115" height="30" as="geometry" />
        </mxCell>
        <mxCell id="uFAtMosG5yBuo42fv5vl-67" style="edgeStyle=orthogonalEdgeStyle;rounded=0;orthogonalLoop=1;jettySize=auto;html=1;exitX=0.5;exitY=0;exitDx=0;exitDy=0;" parent="1" source="uFAtMosG5yBuo42fv5vl-64" edge="1">
          <mxGeometry relative="1" as="geometry">
            <mxPoint x="404.73913043478274" y="517.997391304348" as="targetPoint" />
          </mxGeometry>
        </mxCell>
        <mxCell id="uFAtMosG5yBuo42fv5vl-64" value="" style="rounded=1;whiteSpace=wrap;html=1;fillColor=#1ba1e2;fontColor=#ffffff;strokeColor=#006EAF;" parent="1" vertex="1">
          <mxGeometry x="350" y="518.28" width="110" height="55" as="geometry" />
        </mxCell>
        <mxCell id="uFAtMosG5yBuo42fv5vl-65" value="&lt;b&gt;Test code på pi4&lt;/b&gt;" style="text;html=1;strokeColor=none;fillColor=none;align=center;verticalAlign=middle;whiteSpace=wrap;rounded=0;" parent="1" vertex="1">
          <mxGeometry x="350" y="530.78" width="110" height="30" as="geometry" />
        </mxCell>
        <mxCell id="gAaBRrjh9Kp5CMRJKEtw-1" value="&lt;b&gt;&lt;font style=&quot;font-size: 13px;&quot;&gt;1&lt;/font&gt;&lt;/b&gt;" style="text;html=1;strokeColor=none;fillColor=none;align=center;verticalAlign=middle;whiteSpace=wrap;rounded=0;" parent="1" vertex="1">
          <mxGeometry x="4" y="210" width="30" height="20" as="geometry" />
        </mxCell>
        <mxCell id="gAaBRrjh9Kp5CMRJKEtw-2" value="&lt;b&gt;&lt;font style=&quot;font-size: 13px;&quot;&gt;2&lt;/font&gt;&lt;/b&gt;" style="text;html=1;strokeColor=none;fillColor=none;align=center;verticalAlign=middle;whiteSpace=wrap;rounded=0;" parent="1" vertex="1">
          <mxGeometry x="83" y="9" width="30" height="20" as="geometry" />
        </mxCell>
        <mxCell id="gAaBRrjh9Kp5CMRJKEtw-3" value="&lt;b&gt;&lt;font style=&quot;font-size: 13px;&quot;&gt;3&lt;/font&gt;&lt;/b&gt;" style="text;html=1;strokeColor=none;fillColor=none;align=center;verticalAlign=middle;whiteSpace=wrap;rounded=0;" parent="1" vertex="1">
          <mxGeometry x="260" y="15" width="30" height="20" as="geometry" />
        </mxCell>
        <mxCell id="gAaBRrjh9Kp5CMRJKEtw-4" value="&lt;b&gt;&lt;font style=&quot;font-size: 13px;&quot;&gt;5&lt;/font&gt;&lt;/b&gt;" style="text;html=1;strokeColor=none;fillColor=none;align=center;verticalAlign=middle;whiteSpace=wrap;rounded=0;" parent="1" vertex="1">
          <mxGeometry x="675" y="29" width="30" height="20" as="geometry" />
        </mxCell>
        <mxCell id="gAaBRrjh9Kp5CMRJKEtw-5" value="&lt;b&gt;&lt;font style=&quot;font-size: 13px;&quot;&gt;6&lt;/font&gt;&lt;/b&gt;" style="text;html=1;strokeColor=none;fillColor=none;align=center;verticalAlign=middle;whiteSpace=wrap;rounded=0;" parent="1" vertex="1">
          <mxGeometry x="184.5" y="580.28" width="30" height="20" as="geometry" />
        </mxCell>
        <mxCell id="gAaBRrjh9Kp5CMRJKEtw-6" value="&lt;b&gt;&lt;font style=&quot;font-size: 13px;&quot;&gt;7&lt;/font&gt;&lt;/b&gt;" style="text;html=1;strokeColor=none;fillColor=none;align=center;verticalAlign=middle;whiteSpace=wrap;rounded=0;" parent="1" vertex="1">
          <mxGeometry x="388" y="580.78" width="30" height="20" as="geometry" />
        </mxCell>
        <mxCell id="gAaBRrjh9Kp5CMRJKEtw-10" value="&lt;b&gt;&lt;font style=&quot;font-size: 13px;&quot;&gt;4&lt;/font&gt;&lt;/b&gt;" style="text;html=1;strokeColor=none;fillColor=none;align=center;verticalAlign=middle;whiteSpace=wrap;rounded=0;" parent="1" vertex="1">
          <mxGeometry x="477" y="18" width="30" height="20" as="geometry" />
        </mxCell>
        <mxCell id="EbJVGA68E-LRwI5Z2B4P-4" value="" style="rounded=1;whiteSpace=wrap;html=1;" vertex="1" parent="1">
          <mxGeometry x="215" y="45" width="120" height="60" as="geometry" />
        </mxCell>
        <mxCell id="EbJVGA68E-LRwI5Z2B4P-5" value="&lt;b&gt;Blob algorithm.v1&lt;/b&gt;" style="text;html=1;strokeColor=none;fillColor=none;align=center;verticalAlign=middle;whiteSpace=wrap;rounded=0;" vertex="1" parent="1">
          <mxGeometry x="222" y="60" width="108" height="30" as="geometry" />
        </mxCell>
        <mxCell id="EbJVGA68E-LRwI5Z2B4P-6" value="" style="endArrow=classic;html=1;rounded=0;" edge="1" parent="1">
          <mxGeometry width="50" height="50" relative="1" as="geometry">
            <mxPoint x="170" y="260" as="sourcePoint" />
            <mxPoint x="250" y="110" as="targetPoint" />
            <Array as="points" />
          </mxGeometry>
        </mxCell>
        <mxCell id="EbJVGA68E-LRwI5Z2B4P-8" value="&amp;nbsp;≈40h" style="text;html=1;strokeColor=none;fillColor=none;align=center;verticalAlign=middle;whiteSpace=wrap;rounded=0;rotation=0;" vertex="1" parent="1">
          <mxGeometry x="301" y="86" width="27.8" height="19.69" as="geometry" />
        </mxCell>
        <mxCell id="EbJVGA68E-LRwI5Z2B4P-10" value="Detect object ≈1m&lt;br&gt;&amp;nbsp;" style="text;html=1;strokeColor=none;fillColor=none;align=center;verticalAlign=middle;whiteSpace=wrap;rounded=0;" vertex="1" parent="1">
          <mxGeometry x="241" y="137.5" width="79" height="30" as="geometry" />
        </mxCell>
        <mxCell id="EbJVGA68E-LRwI5Z2B4P-11" value="Learn python / OpenCV" style="text;html=1;strokeColor=none;fillColor=none;align=center;verticalAlign=middle;whiteSpace=wrap;rounded=0;" vertex="1" parent="1">
          <mxGeometry x="210.5" y="180" width="129" height="30" as="geometry" />
        </mxCell>
        <mxCell id="EbJVGA68E-LRwI5Z2B4P-14" value="" style="endArrow=classic;html=1;rounded=0;exitX=1;exitY=0.5;exitDx=0;exitDy=0;entryX=0;entryY=0.5;entryDx=0;entryDy=0;" edge="1" parent="1" source="EbJVGA68E-LRwI5Z2B4P-4" target="uFAtMosG5yBuo42fv5vl-22">
          <mxGeometry width="50" height="50" relative="1" as="geometry">
            <mxPoint x="510" y="290" as="sourcePoint" />
            <mxPoint x="490" y="75" as="targetPoint" />
          </mxGeometry>
        </mxCell>
        <mxCell id="EbJVGA68E-LRwI5Z2B4P-17" value="" style="endArrow=classic;html=1;rounded=0;entryX=-0.007;entryY=0.384;entryDx=0;entryDy=0;entryPerimeter=0;" edge="1" parent="1" target="uFAtMosG5yBuo42fv5vl-39">
          <mxGeometry width="50" height="50" relative="1" as="geometry">
            <mxPoint x="561" y="73" as="sourcePoint" />
            <mxPoint x="638" y="74" as="targetPoint" />
          </mxGeometry>
        </mxCell>
        <mxCell id="EbJVGA68E-LRwI5Z2B4P-18" value="" style="endArrow=none;html=1;rounded=0;" edge="1" parent="1">
          <mxGeometry width="50" height="50" relative="1" as="geometry">
            <mxPoint x="210" y="200" as="sourcePoint" />
            <mxPoint x="340" y="200" as="targetPoint" />
          </mxGeometry>
        </mxCell>
        <mxCell id="EbJVGA68E-LRwI5Z2B4P-19" value="" style="endArrow=none;html=1;rounded=0;entryX=1;entryY=0.75;entryDx=0;entryDy=0;" edge="1" parent="1" target="EbJVGA68E-LRwI5Z2B4P-10">
          <mxGeometry width="50" height="50" relative="1" as="geometry">
            <mxPoint x="240" y="160" as="sourcePoint" />
            <mxPoint x="470" y="180" as="targetPoint" />
          </mxGeometry>
        </mxCell>
        <mxCell id="EbJVGA68E-LRwI5Z2B4P-20" value="" style="endArrow=classic;html=1;rounded=0;entryX=0.5;entryY=0;entryDx=0;entryDy=0;" edge="1" parent="1">
          <mxGeometry width="50" height="50" relative="1" as="geometry">
            <mxPoint x="693" y="150" as="sourcePoint" />
            <mxPoint x="692.6" y="260" as="targetPoint" />
            <Array as="points" />
          </mxGeometry>
        </mxCell>
        <mxCell id="EbJVGA68E-LRwI5Z2B4P-21" value="" style="endArrow=none;html=1;rounded=0;exitX=0;exitY=1;exitDx=0;exitDy=0;entryX=1;entryY=1;entryDx=0;entryDy=0;" edge="1" parent="1" source="uFAtMosG5yBuo42fv5vl-43" target="uFAtMosG5yBuo42fv5vl-43">
          <mxGeometry width="50" height="50" relative="1" as="geometry">
            <mxPoint x="420" y="320" as="sourcePoint" />
            <mxPoint x="470" y="270" as="targetPoint" />
          </mxGeometry>
        </mxCell>
        <mxCell id="EbJVGA68E-LRwI5Z2B4P-24" value="" style="endArrow=classic;html=1;rounded=0;entryX=0;entryY=0.5;entryDx=0;entryDy=0;" edge="1" parent="1" target="uFAtMosG5yBuo42fv5vl-65">
          <mxGeometry width="50" height="50" relative="1" as="geometry">
            <mxPoint x="263.5" y="544.6" as="sourcePoint" />
            <mxPoint x="339.5" y="544.6" as="targetPoint" />
          </mxGeometry>
        </mxCell>
      </root>
    </mxGraphModel>
  </diagram>
</mxfile>
